<svg width="20" height="17" viewBox="0 0 20 17" fill="none" xmlns="http://www.w3.org/2000/svg">
<path d="M1 7H19M18 13V7.67908C18 7.42555 18.0001 7.29884 17.9844 7.17419C17.9704 7.06348 17.947 6.95404 17.9148 6.84719C17.8786 6.72691 17.827 6.61115 17.724 6.37948L16.1777 2.90039C15.872 2.21253 15.7192 1.86852 15.4775 1.61633C15.264 1.39341 15.0021 1.223 14.7116 1.11837C14.383 1 14.0063 1 13.2536 1H6.74609C5.99336 1 5.61716 1 5.28857 1.11837C4.99813 1.223 4.73604 1.39341 4.52246 1.61633C4.28084 1.86852 4.12785 2.21253 3.82214 2.90039L2.27588 6.37948C2.17291 6.61115 2.12122 6.72691 2.08496 6.84719C2.05276 6.95404 2.02969 7.06348 2.01572 7.17419C2 7.29884 2 7.42555 2 7.67908V13M18 13L2 13M18 13V14C18 15.1046 17.1046 16 16 16C14.8954 16 14 15.1046 14 14V13M2 13V14C2 15.1046 2.89543 16 4 16C5.10457 16 6 15.1046 6 14V13" stroke="white" stroke-width="1.5" stroke-linecap="round" stroke-linejoin="round"/>
</svg>
